<svg width="200" height="200" viewBox="0 0 200 200" fill="none" xmlns="http://www.w3.org/2000/svg">
<path fill-rule="evenodd" clip-rule="evenodd" d="M100 183.333C109.167 183.333 116.667 175.833 116.667 166.667H83.3333C83.3333 175.833 90.8333 183.333 100 183.333ZM150 133.333V91.6667C150 66.0833 136.417 44.6667 112.5 39V33.3333C112.5 26.4167 106.917 20.8333 100 20.8333C93.0833 20.8333 87.5 26.4167 87.5 33.3333V39C63.6667 44.6667 50 66 50 91.6667V133.333L33.3333 150V158.333H166.667V150L150 133.333ZM133.333 141.667H66.6667V91.6667C66.6667 71 79.25 54.1667 100 54.1667C120.75 54.1667 133.333 71 133.333 91.6667V141.667Z" fill="#020202"/>
</svg>
