<svg width="200" height="200" viewBox="0 0 200 200" fill="none" xmlns="http://www.w3.org/2000/svg">
<path fill-rule="evenodd" clip-rule="evenodd" d="M85.6531 34.1052C90.7139 38.6999 89.4296 45.6655 87.2132 50.5798L87.2087 50.5897C83.9832 57.7083 82.2146 65.5 82.2802 73.7365L82.2804 73.7595C82.4111 104.254 108.746 130.655 141.444 131.946C146.261 132.14 150.868 131.818 155.336 131.046C158.345 130.517 161.307 130.42 163.985 131.024C166.699 131.635 169.53 133.082 171.319 135.908C173.121 138.757 173.199 141.95 172.528 144.675C171.872 147.34 170.443 149.908 168.625 152.286C152.905 173.052 126.813 186.116 97.7839 184.901C56.6208 183.153 21.8497 151.316 18.9655 111.532C16.3321 76.2744 38.0115 45.7455 69.2119 33.0411C74.2189 30.9936 80.9486 29.834 85.6531 34.1052ZM76.4279 43.8295C75.791 43.9558 74.9628 44.1937 73.9369 44.6137L73.9259 44.6181C47.2022 55.4997 29.2411 81.3218 31.4312 110.607L31.4323 110.622C33.8178 143.572 62.9704 170.909 98.3068 172.412C123.248 173.456 145.423 162.233 158.667 144.73L158.687 144.704C159.146 144.104 159.498 143.572 159.761 143.112C159.166 143.127 158.416 143.196 157.495 143.358L157.475 143.361C152.146 144.283 146.658 144.666 140.946 144.436C102.12 142.901 69.9488 111.542 69.7805 73.8246C69.7016 63.7062 71.8815 54.1312 75.8207 45.4357C76.1082 44.7978 76.3005 44.2641 76.4279 43.8295Z" fill="black"/>
<path fill-rule="evenodd" clip-rule="evenodd" d="M143.79 20.0117C145.151 13.2281 154.849 13.2275 156.209 20.0117L157.017 24.0389C158.506 31.4605 164.31 37.2592 171.734 38.7397L175.813 39.5533C182.606 40.9081 182.605 50.6206 175.813 51.9753L171.734 52.7888C164.31 54.2693 158.506 60.0681 157.017 67.4897L156.209 71.5168C154.849 78.301 145.151 78.3004 143.79 71.5168L142.982 67.4897C141.494 60.0681 135.689 54.2693 128.266 52.7888L124.187 51.9753C117.394 50.6204 117.394 40.908 124.187 39.5533L128.266 38.7397C135.689 37.2592 141.494 31.4605 142.982 24.0389L143.79 20.0117ZM150 38.5558C148.006 41.3361 145.568 43.7726 142.787 45.7643C145.568 47.756 148.006 50.1925 150 52.9728C151.993 50.1925 154.431 47.756 157.213 45.7643C154.431 43.7726 151.993 41.3361 150 38.5558Z" fill="black"/>
<path fill-rule="evenodd" clip-rule="evenodd" d="M127.327 77.2604C129.255 71.4931 137.413 71.4929 139.34 77.2604L139.465 77.6342C141.336 83.2315 145.733 87.6213 151.334 89.4829L151.734 89.616C157.515 91.5375 157.515 99.7144 151.734 101.636L151.334 101.769C145.733 103.631 141.336 108.02 139.465 113.618L139.34 113.991C137.413 119.759 129.255 119.759 127.327 113.991L127.202 113.618C125.331 108.02 120.934 103.631 115.334 101.769L114.933 101.636C109.153 99.7144 109.153 91.5376 114.933 89.616L115.334 89.4829C120.934 87.6213 125.331 83.2315 127.202 77.6342L127.327 77.2604ZM133.334 91.8064C132.172 93.1875 130.892 94.4656 129.51 95.626C130.892 96.7863 132.172 98.0644 133.334 99.4455C134.496 98.0644 135.775 96.7863 137.157 95.626C135.775 94.4656 134.496 93.1875 133.334 91.8064Z" fill="black"/>
</svg>
