<svg width="200" height="200" viewBox="0 0 200 200" fill="none" xmlns="http://www.w3.org/2000/svg">
<path fill-rule="evenodd" clip-rule="evenodd" d="M100 10.4167C103.452 10.4167 106.25 13.2149 106.25 16.6667V31.1112C106.25 34.563 103.452 37.3612 100 37.3612C96.5482 37.3612 93.75 34.563 93.75 31.1112V16.6667C93.75 13.2149 96.5482 10.4167 100 10.4167ZM162.753 37.2473C165.194 39.6881 165.194 43.6454 162.753 46.0862L153.1 55.739C150.659 58.1797 146.702 58.1797 144.261 55.739C141.82 53.2982 141.82 49.3409 144.261 46.9001L153.914 37.2473C156.355 34.8066 160.312 34.8066 162.753 37.2473ZM37.2472 37.2474C39.688 34.8066 43.6453 34.8066 46.0861 37.2474L55.7389 46.9001C58.1796 49.3409 58.1796 53.2982 55.7389 55.739C53.2981 58.1797 49.3408 58.1797 46.9 55.739L37.2472 46.0862C34.8065 43.6454 34.8065 39.6881 37.2472 37.2474ZM10.4167 100C10.4167 96.5483 13.2149 93.7501 16.6667 93.7501H30.5556C34.0073 93.7501 36.8056 96.5483 36.8056 100C36.8056 103.452 34.0073 106.25 30.5556 106.25H16.6667C13.2149 106.25 10.4167 103.452 10.4167 100ZM163.194 100C163.194 96.5483 165.993 93.7501 169.444 93.7501H183.333C186.785 93.7501 189.583 96.5483 189.583 100C189.583 103.452 186.785 106.25 183.333 106.25H169.444C165.993 106.25 163.194 103.452 163.194 100ZM55.7389 144.261C58.1796 146.702 58.1796 150.659 55.7389 153.1L45.3916 163.447C42.9509 165.888 38.9936 165.888 36.5528 163.447C34.112 161.007 34.112 157.049 36.5528 154.608L46.9 144.261C49.3408 141.82 53.2981 141.82 55.7389 144.261ZM144.261 144.261C146.702 141.82 150.659 141.82 153.1 144.261L162.753 153.914C165.193 156.355 165.193 160.312 162.753 162.753C160.312 165.194 156.355 165.194 153.914 162.753L144.261 153.1C141.82 150.659 141.82 146.702 144.261 144.261ZM100 163.195C103.452 163.195 106.25 165.993 106.25 169.445V183.333C106.25 186.785 103.452 189.583 100 189.583C96.5482 189.583 93.75 186.785 93.75 183.333V169.445C93.75 165.993 96.5482 163.195 100 163.195Z" fill="black"/>
<path fill-rule="evenodd" clip-rule="evenodd" d="M100 64.5833C80.4399 64.5833 64.5833 80.4399 64.5833 100C64.5833 119.56 80.4399 135.417 100 135.417C119.56 135.417 135.417 119.56 135.417 100C135.417 80.4399 119.56 64.5833 100 64.5833ZM52.0833 100C52.0833 73.5363 73.5364 52.0833 100 52.0833C126.464 52.0833 147.917 73.5363 147.917 100C147.917 126.464 126.464 147.917 100 147.917C73.5364 147.917 52.0833 126.464 52.0833 100Z" fill="black"/>
</svg>
