<svg width="100" height="100" viewBox="0 0 100 100" fill="none" xmlns="http://www.w3.org/2000/svg">
  <mask id="mask0_4_3760" style="mask-type:luminance" maskUnits="userSpaceOnUse" x="8" y="12.5" width="84" height="76">
    <path fill-rule="evenodd" clip-rule="evenodd" d="M8.3333 12.5H91.724V88.273H8.3333V12.5Z" fill="white"/>
  </mask>
  <g mask="url(#mask0_4_3760)">
    <path fill-rule="evenodd" clip-rule="evenodd" d="M50.053 18.75C48.0696 18.75 46.3029 19.775 45.3113 21.4959L15.3196 73.85C14.3446 75.5586 14.3529 77.5961 15.3404 79.3C16.3279 81.004 18.0946 82.025 20.0654 82.025H79.9947C81.9617 82.025 83.7284 81.004 84.7159 79.3C85.7075 77.5961 85.7158 75.5586 84.732 73.85L54.7945 21.4959C53.8071 19.775 52.0404 18.75 50.053 18.75M79.9947 88.275H20.0654C15.8404 88.275 12.0529 86.0917 9.9321 82.4336C7.8113 78.7793 7.7987 74.4087 9.8946 70.746L39.8946 18.3875C42.0029 14.7 45.7987 12.5 50.053 12.5H50.057C54.307 12.5 58.1115 14.7041 60.2198 18.3958L90.1615 70.746C92.2575 74.4087 92.245 78.7793 90.1242 82.4336C88.0034 86.0917 84.2159 88.275 79.9947 88.275" fill="#C98D01"/>
  </g>
  <path fill-rule="evenodd" clip-rule="evenodd" d="M50.016 59.0167C48.2912 59.0167 46.8912 57.6167 46.8912 55.8917V42.975C46.8912 41.25 48.2912 39.85 50.016 39.85C51.7408 39.85 53.1408 41.25 53.1408 42.975V55.8917C53.1408 57.6167 51.7408 59.0167 50.016 59.0167" fill="#C98D01"/>
  <path fill-rule="evenodd" clip-rule="evenodd" d="M50.0245 72.9125C47.7204 72.9125 45.8371 71.05 45.8371 68.746C45.8371 66.4417 47.6829 64.5792 49.9829 64.5792H50.0245C52.3287 64.5792 54.1929 66.4417 54.1929 68.746C54.1929 71.05 52.3287 72.9125 50.0245 72.9125" fill="#C98D01"/>
</svg>
