<svg width="200" height="200" viewBox="0 0 200 200" fill="none" xmlns="http://www.w3.org/2000/svg">
<path fill-rule="evenodd" clip-rule="evenodd" d="M138.332 100.257C126.459 96.8382 113.705 98.3898 102.998 104.556C88.5314 112.887 71.1356 114.443 55.4201 108.812L35.5406 101.689C32.5934 100.632 31.0604 97.3872 32.1165 94.4401C33.1725 91.493 36.4177 89.9599 39.3649 91.016L59.2444 98.1395C71.8279 102.649 85.7568 101.403 97.3402 94.7318C110.713 87.0307 126.64 85.0928 141.469 89.3628L159.949 94.6841C162.958 95.5503 164.694 98.6914 163.828 101.7C162.962 104.708 159.821 106.445 156.812 105.578L138.332 100.257Z" fill="black"/>
<path fill-rule="evenodd" clip-rule="evenodd" d="M148.232 145.466C133.174 141.991 117.179 143.689 103.108 150.159C85.4632 158.274 65.2667 159.904 46.5623 154.542L20.7746 147.149C17.7652 146.287 16.0249 143.148 16.8876 140.138C17.7503 137.129 20.8893 135.388 23.8987 136.251L49.6864 143.644C65.7488 148.248 83.158 146.856 98.3716 139.859C114.691 132.354 133.247 130.373 150.781 134.42L174.772 139.956C177.822 140.66 179.724 143.703 179.02 146.754C178.316 149.804 175.273 151.707 172.222 151.003L148.232 145.466Z" fill="black"/>
<path fill-rule="evenodd" clip-rule="evenodd" d="M148.232 54.7703C133.174 51.2954 117.179 52.9927 103.108 59.4634C85.4632 67.5783 65.2667 69.2076 46.5623 63.8457L20.7746 56.4532C17.7652 55.5905 16.0249 52.4516 16.8876 49.4421C17.7503 46.4327 20.8893 44.6925 23.8987 45.5552L49.6864 52.9476C65.7488 57.5522 83.158 56.16 98.3716 49.1634C114.691 41.6583 133.247 39.6772 150.781 43.7236L174.772 49.2599C177.822 49.9638 179.724 53.0074 179.02 56.0578C178.316 59.1083 175.273 61.0105 172.222 60.3065L148.232 54.7703Z" fill="black"/>
</svg>
