<svg width="200" height="200" viewBox="0 0 200 200" fill="none" xmlns="http://www.w3.org/2000/svg">
<path fill-rule="evenodd" clip-rule="evenodd" d="M51.7413 27.1215C47.8132 31.2155 49.421 36.657 50.9145 39.6341L50.9193 39.6436C52.7946 43.3662 53.9331 47.4864 54.1334 51.9016L54.1344 51.9238C54.9348 68.2762 41.9816 83.1131 25.1611 84.6955C22.6676 84.932 20.2728 84.8861 17.9392 84.5962L17.9594 84.5988C16.0116 84.3503 13.9246 84.36 11.9456 84.9322C9.91608 85.519 7.66997 86.821 6.32878 89.294C4.99293 91.7571 5.12232 94.3361 5.7128 96.3358C6.28979 98.2899 7.38422 100.04 8.62113 101.538C14.2568 108.423 21.7675 113.715 30.3322 116.732C33.5878 117.879 37.1568 116.169 38.3037 112.914C39.4506 109.658 37.7411 106.089 34.4855 104.942C29.7346 103.268 25.4293 100.663 21.8164 97.347C23.3033 97.3525 24.8092 97.285 26.3367 97.1401C49.6126 94.9478 67.7502 74.541 66.62 51.3239C66.4241 47.0292 65.5966 42.9245 64.2385 39.0746C73.1543 43.6927 79.9123 51.7672 82.5845 61.4954C83.4988 64.8239 86.9382 66.781 90.2667 65.8667C93.5952 64.9524 95.5523 61.513 94.638 58.1845C90.4084 42.7863 78.735 30.65 63.9198 25.3281C60.8262 24.2124 55.4692 23.2363 51.7413 27.1215Z" fill="#001f3f"/>
<path fill-rule="evenodd" clip-rule="evenodd" d="M104.458 80.8517C95.7164 85.0328 88.3469 92.886 85.0065 105.831C84.2325 108.831 81.7467 111.178 78.641 111.728C59.1256 115.185 51.0068 129.539 52.6166 141.757C53.4325 147.949 56.7414 153.966 62.8826 158.354C69.0447 162.758 78.4265 165.763 91.6261 165.058C100.755 164.57 120.821 164.82 138.03 165.033C146.327 165.136 153.96 165.231 159.382 165.231H159.559L159.735 165.241C169.423 165.788 175.687 163.5 179.48 160.517C183.25 157.551 185.128 153.48 185.386 149.243C185.913 140.583 179.753 131.607 168.453 131.042C162.945 130.766 159.374 125.152 161.257 120.093C165.195 109.521 163.297 100.623 158.288 93.6489C153.116 86.4484 144.336 80.9574 134.235 78.4534C124.159 75.9557 113.378 76.5852 104.458 80.8517ZM174.582 119.282C177.705 106.776 174.95 95.4199 168.44 86.3568C161.207 76.2852 149.622 69.3893 137.242 66.3206C124.837 63.2455 111.019 63.8573 99.0643 69.5752C87.6127 75.0525 78.256 85.0469 73.6708 99.9864C49.9731 105.427 37.7607 124.696 40.2237 143.39C41.4917 153.013 46.6558 162.122 55.615 168.525C64.5532 174.912 76.8991 178.362 92.2926 177.54C101.021 177.074 120.088 177.313 137.025 177.525C145.463 177.63 153.372 177.729 159.21 177.731C171.062 178.367 180.498 175.62 187.208 170.342C193.973 165.021 197.404 157.552 197.863 150.003C198.678 136.604 190.064 122.66 174.582 119.282Z" fill="#001f3f"/>
</svg>
