<svg width="200" height="200" viewBox="0 0 200 200" fill="none" xmlns="http://www.w3.org/2000/svg">
<path fill-rule="evenodd" clip-rule="evenodd" d="M85.1222 36.6746C76.0774 41.2135 68.3464 49.8111 64.8544 64.0936C64.1155 67.1158 61.6412 69.5003 58.5275 70.077C38.5137 73.7836 29.7363 89.3814 31.4634 103.178C32.3315 110.114 35.8529 116.751 42.2337 121.538C48.6172 126.327 58.2851 129.565 71.8606 128.805C81.2753 128.277 101.971 128.547 119.714 128.778C128.266 128.89 136.132 128.992 141.718 128.992H141.903L142.087 129.003C152.048 129.593 158.509 127.129 162.457 123.862C166.413 120.588 168.449 116.021 168.719 111.193C169.276 101.249 162.526 91.5303 150.965 90.9736C145.531 90.712 141.893 85.2036 143.725 80.119C147.957 68.3764 145.979 58.4404 140.727 50.7119C135.341 42.7858 126.231 36.8168 115.831 34.0972C105.45 31.3825 94.3358 32.0511 85.1222 36.6746ZM157.063 79.201C160.451 65.7192 157.724 53.4845 151.065 43.6862C143.702 32.8503 131.804 25.354 118.993 22.0039C106.163 18.6488 91.8636 19.3061 79.5158 25.5025C67.6607 31.4516 58.0829 42.277 53.4423 58.38C28.8604 64.2415 16.5943 85.0328 19.0602 104.731C20.3345 114.911 25.5454 124.645 34.7322 131.537C43.9163 138.427 56.6513 142.177 72.56 141.285C81.5541 140.781 101.202 141.039 118.659 141.268C127.359 141.383 135.515 141.49 141.537 141.492C153.81 142.183 163.548 139.184 170.426 133.492C177.331 127.778 180.755 119.834 181.2 111.892C181.988 97.813 173.265 82.7054 157.063 79.201Z" fill="black"/>
<path fill-rule="evenodd" clip-rule="evenodd" d="M72.2566 149.132C75.2528 150.846 76.2923 154.664 74.5784 157.66L65.3262 173.835C63.6123 176.831 59.7939 177.87 56.7977 176.157C53.8015 174.443 52.762 170.624 54.4759 167.628L63.7282 151.453C65.4421 148.457 69.2604 147.418 72.2566 149.132Z" fill="black"/>
<path fill-rule="evenodd" clip-rule="evenodd" d="M118.924 149.965C121.92 151.679 122.96 155.497 121.246 158.493L111.994 174.668C110.28 177.664 106.461 178.704 103.465 176.99C100.469 175.276 99.4295 171.458 101.143 168.461L110.396 152.287C112.11 149.291 115.928 148.251 118.924 149.965Z" fill="black"/>
<path fill-rule="evenodd" clip-rule="evenodd" d="M90.7465 159.613C93.7582 161.299 94.8323 165.108 93.1456 168.12L88.593 176.249C86.9064 179.26 83.0976 180.334 80.086 178.648C77.0744 176.961 76.0003 173.152 77.6869 170.141L82.2395 162.012C83.9262 159 87.7349 157.926 90.7465 159.613Z" fill="black"/>
<path fill-rule="evenodd" clip-rule="evenodd" d="M139.716 160.613C142.728 162.299 143.802 166.108 142.115 169.12L137.563 177.249C135.876 180.26 132.067 181.334 129.056 179.648C126.044 177.961 124.97 174.152 126.656 171.141L131.209 163.012C132.896 160 136.704 158.926 139.716 160.613Z" fill="black"/>
</svg>
