<svg width="200" height="200" viewBox="0 0 200 200" fill="none" xmlns="http://www.w3.org/2000/svg">
<path fill-rule="evenodd" clip-rule="evenodd" d="M159.359 107.8C159.659 105.3 159.859 102.7 159.859 100C159.859 97.3 159.659 94.7 159.259 92.2L176.159 79C177.659 77.8 178.059 75.6 177.159 73.9L161.159 46.2C160.159 44.4 158.059 43.8 156.259 44.4L136.359 52.4C132.159 49.2 127.759 46.6 122.859 44.6L119.859 23.4C119.559 21.4 117.859 20 115.859 20H83.8593C81.8593 20 80.2593 21.4 79.9593 23.4L76.9593 44.6C72.0593 46.6 67.5593 49.3 63.4593 52.4L43.5593 44.4C41.7593 43.7 39.6593 44.4 38.6593 46.2L22.6593 73.9C21.6593 75.7 22.0593 77.8 23.6593 79L40.5593 92.2C40.1593 94.7 39.8593 97.4 39.8593 100C39.8593 102.6 40.0593 105.3 40.4593 107.8L23.5593 121C22.0593 122.2 21.6593 124.4 22.5593 126.1L38.5593 153.8C39.5593 155.6 41.6593 156.2 43.4593 155.6L63.3593 147.6C67.5593 150.8 71.9593 153.4 76.8593 155.4L79.8593 176.6C80.2593 178.6 81.8593 180 83.8593 180H115.859C117.859 180 119.559 178.6 119.759 176.6L122.759 155.4C127.659 153.4 132.159 150.7 136.259 147.6L156.159 155.6C157.959 156.3 160.059 155.6 161.059 153.8L177.059 126.1C178.059 124.3 177.659 122.2 176.059 121L159.359 107.8V107.8ZM99.8593 130C83.3593 130 69.8593 116.5 69.8593 100C69.8593 83.5 83.3593 70 99.8593 70C116.359 70 129.859 83.5 129.859 100C129.859 116.5 116.359 130 99.8593 130Z" fill="#020202"/>
</svg>
