<svg width="200" height="200" viewBox="0 0 200 200" fill="none" xmlns="http://www.w3.org/2000/svg">
<path fill-rule="evenodd" clip-rule="evenodd" d="M106.446 114.065C108.748 114.065 110.613 115.931 110.613 118.232V119.087L110.857 118.784C112.301 116.992 114.924 116.71 116.716 118.154C118.508 119.598 118.79 122.221 117.346 124.013L110.613 132.368V142.558L118.902 137.608L122.574 127.286C123.345 125.117 125.728 123.985 127.896 124.756C130.064 125.527 131.197 127.91 130.425 130.078L130.132 130.904L130.828 130.488C132.804 129.308 135.362 129.953 136.542 131.929C137.721 133.905 137.076 136.463 135.1 137.643L134.214 138.172L134.888 138.292C137.153 138.697 138.661 140.862 138.256 143.127C137.851 145.392 135.687 146.9 133.422 146.496L123.303 144.687L114.494 149.946L123.746 155.47L133.572 153.714C135.837 153.309 138.002 154.817 138.407 157.082C138.811 159.347 137.303 161.512 135.038 161.917L134.657 161.985L135.318 162.379C137.294 163.559 137.939 166.117 136.759 168.093C135.58 170.069 133.022 170.714 131.046 169.534L130.179 169.017L130.576 170.131C131.347 172.299 130.214 174.682 128.046 175.453C125.878 176.224 123.495 175.092 122.724 172.924L118.95 162.312L110.613 157.334V167.429L117.346 175.784C118.79 177.576 118.508 180.199 116.716 181.643C114.924 183.087 112.301 182.805 110.857 181.013L110.613 180.71V181.565C110.613 183.866 108.748 185.732 106.446 185.732C104.145 185.732 102.28 183.866 102.28 181.565V180.71L102.036 181.013C100.592 182.805 97.9689 183.087 96.177 181.643C94.3852 180.199 94.1031 177.576 95.5469 175.784L102.28 167.429V157.239L94.0379 162.16L90.4691 172.195C89.6979 174.363 87.3152 175.495 85.1471 174.724C82.9789 173.953 81.8464 171.57 82.6175 169.402L82.8085 168.865L82.0646 169.309C80.0888 170.489 77.5308 169.844 76.3511 167.868C75.1714 165.892 75.8167 163.334 77.7925 162.154L79.1217 161.361L78.1551 161.188C75.8899 160.783 74.3817 158.619 74.7866 156.353C75.1915 154.088 77.3561 152.58 79.6214 152.985L90.0333 154.846L98.2391 149.946L89.5022 144.73L79.6214 146.496C77.3561 146.9 75.1915 145.392 74.7866 143.127C74.3817 140.862 75.8899 138.697 78.1551 138.292L78.5907 138.214L78.0101 137.868C76.0343 136.688 75.389 134.13 76.5687 132.154C77.7484 130.178 80.3064 129.533 82.2822 130.713L82.9945 131.138L82.6175 130.078C81.8464 127.91 82.9789 125.527 85.1471 124.756C87.3152 123.985 89.6979 125.117 90.4691 127.286L94.2239 137.843L102.28 142.653V132.368L95.5469 124.013C94.1031 122.221 94.3852 119.598 96.177 118.154C97.9689 116.71 100.592 116.992 102.036 118.784L102.28 119.087V118.232C102.28 115.931 104.145 114.065 106.446 114.065Z" fill="black"/>
<path fill-rule="evenodd" clip-rule="evenodd" d="M84.0472 31.3816C74.3746 36.0561 66.2174 44.8563 62.5456 59.3343C61.7832 62.3405 59.2984 64.7074 56.1766 65.2601C35.713 68.8832 26.4492 83.5801 27.1174 96.862C27.7704 109.841 38.1324 123.734 62.2571 125.127C65.7032 125.326 68.3355 128.281 68.1366 131.727C67.9377 135.173 64.9829 137.805 61.5369 137.606C32.0459 135.904 15.6551 117.801 14.6332 97.4901C13.6632 78.2093 26.7579 59.0416 51.1853 53.5176C56.0827 37.0899 66.1971 26.1249 78.6081 20.127C91.5193 13.8873 106.472 13.2217 119.903 16.602C133.31 19.9761 145.805 27.5369 153.556 38.5189C160.579 48.4702 163.47 60.936 159.879 74.6742C175.753 77.8831 185.027 91.4698 185.404 105.132C185.616 112.777 183.074 120.615 177.31 126.76C171.519 132.935 162.912 136.945 151.797 137.761C148.355 138.014 145.359 135.428 145.106 131.986C144.854 128.543 147.44 125.547 150.882 125.295C159.436 124.667 164.908 121.712 168.193 118.209C171.505 114.677 173.038 110.126 172.909 105.478C172.65 96.0933 165.744 87.0021 153.735 86.4883C148.184 86.2508 144.607 80.5969 146.503 75.5394C150.96 63.647 148.892 53.5893 143.343 45.7268C137.636 37.641 127.951 31.5172 116.852 28.724C105.778 25.9368 93.8981 26.6209 84.0472 31.3816Z" fill="black"/>
</svg>
