<svg width="200" height="200" viewBox="0 0 200 200" fill="none" xmlns="http://www.w3.org/2000/svg">
<path fill-rule="evenodd" clip-rule="evenodd" d="M63.1715 78.0049C72.939 68.2373 86.1866 62.75 100 62.75C113.813 62.75 127.061 68.2373 136.828 78.0049C146.596 87.7724 152.083 101.02 152.083 114.833C152.083 118.285 149.285 121.083 145.833 121.083C142.382 121.083 139.583 118.285 139.583 114.833C139.583 104.335 135.413 94.267 127.99 86.8437C120.566 79.4204 110.498 75.25 100 75.25C89.5018 75.25 79.4337 79.4204 72.0104 86.8437C64.587 94.267 60.4167 104.335 60.4167 114.833C60.4167 118.285 57.6184 121.083 54.1667 121.083C50.7149 121.083 47.9167 118.285 47.9167 114.833C47.9167 101.02 53.404 87.7724 63.1715 78.0049Z" fill="black"/>
<path fill-rule="evenodd" clip-rule="evenodd" d="M100 16.9167C103.452 16.9167 106.25 19.7149 106.25 23.1667V39.0557C106.25 42.5075 103.452 45.3057 100 45.3057C96.5482 45.3057 93.75 42.5075 93.75 39.0557V23.1667C93.75 19.7149 96.5482 16.9167 100 16.9167ZM168.586 46.2474C171.027 48.6881 171.027 52.6454 168.586 55.0862L157.968 65.7043C155.527 68.145 151.57 68.145 149.129 65.7043C146.688 63.2635 146.688 59.3062 149.129 56.8654L159.747 46.2474C162.188 43.8066 166.145 43.8066 168.586 46.2474ZM31.4139 46.2474C33.8547 43.8066 37.812 43.8066 40.2528 46.2474L50.8708 56.8654C53.3116 59.3062 53.3116 63.2635 50.8708 65.7043C48.43 68.145 44.4728 68.145 42.032 65.7043L31.4139 55.0862C28.9731 52.6454 28.9731 48.6881 31.4139 46.2474ZM2.08334 114.833C2.08334 111.382 4.88156 108.583 8.33334 108.583H23.6111C27.0629 108.583 29.8611 111.382 29.8611 114.833C29.8611 118.285 27.0629 121.083 23.6111 121.083H8.33334C4.88156 121.083 2.08334 118.285 2.08334 114.833ZM170.139 114.833C170.139 111.382 172.937 108.583 176.389 108.583H191.667C195.118 108.583 197.917 111.382 197.917 114.833C197.917 118.285 195.118 121.083 191.667 121.083H176.389C172.937 121.083 170.139 118.285 170.139 114.833Z" fill="black"/>
<path fill-rule="evenodd" clip-rule="evenodd" d="M102.309 122.333C105.761 122.333 108.559 125.132 108.559 128.583L108.559 163.537L118.458 153.654C120.901 151.216 124.858 151.219 127.297 153.662C129.735 156.105 129.732 160.062 127.289 162.501L109.623 180.138C105.56 184.194 98.9801 184.194 94.9173 180.138L77.2509 162.501C74.8081 160.062 74.8048 156.105 77.2435 153.662C79.6823 151.219 83.6396 151.216 86.0824 153.654L96.059 163.615L96.059 128.583C96.059 125.132 98.8572 122.333 102.309 122.333Z" fill="black"/>
</svg>
