<svg width="200" height="200" viewBox="0 0 200 200" fill="none" xmlns="http://www.w3.org/2000/svg">
<path fill-rule="evenodd" clip-rule="evenodd" d="M75.564 39.4608C75.564 25.7213 86.702 14.5833 100.441 14.5833C114.181 14.5833 125.319 25.7213 125.319 39.4608V127.77C129.357 132.053 132.233 137.319 133.645 143.068C135.301 149.808 134.866 156.891 132.4 163.377C129.934 169.864 125.552 175.446 119.837 179.383C114.122 183.319 107.345 185.424 100.405 185.417C93.4658 185.409 86.6928 183.291 80.9862 179.342C75.2797 175.393 70.9097 169.802 68.457 163.31C66.0042 156.819 65.5849 149.734 67.2546 142.999C68.6733 137.276 71.5431 132.035 75.564 127.77V39.4608ZM88.0089 128.775C88.552 130.964 87.8879 133.372 86.0806 134.969C82.7811 137.884 80.4467 141.733 79.3874 146.006C78.3281 150.279 78.5941 154.774 80.1501 158.892C81.7062 163.01 84.4785 166.558 88.0988 169.063C91.7191 171.568 96.016 172.912 100.418 172.917C104.821 172.921 109.121 171.586 112.746 169.089C116.372 166.591 119.152 163.05 120.716 158.935C122.281 154.82 122.556 150.326 121.506 146.051C120.456 141.775 118.129 137.921 114.836 134.999C113.063 133.426 112.396 131.07 112.894 128.913C112.845 128.596 112.819 128.272 112.819 127.941V39.4608C112.819 32.6249 107.277 27.0833 100.441 27.0833C93.6056 27.0833 88.064 32.6249 88.064 39.4608V127.941C88.064 128.224 88.0453 128.502 88.0089 128.775Z" fill="black"/>
<path fill-rule="evenodd" clip-rule="evenodd" d="M88.7499 153.334C88.7499 146.89 93.9732 141.667 100.417 141.667H100.5C106.943 141.667 112.167 146.89 112.167 153.334C112.167 159.777 106.943 165 100.5 165H100.417C93.9732 165 88.7499 159.777 88.7499 153.334Z" fill="black"/>
<path fill-rule="evenodd" clip-rule="evenodd" d="M100.667 77.0833C104.118 77.0833 106.917 79.8815 106.917 83.3333V154.167C106.917 157.618 104.118 160.417 100.667 160.417C97.2148 160.417 94.4166 157.618 94.4166 154.167V83.3333C94.4166 79.8815 97.2148 77.0833 100.667 77.0833Z" fill="black"/>
</svg>
