<svg width="200" height="200" viewBox="0 0 200 200" fill="none" xmlns="http://www.w3.org/2000/svg">
<path fill-rule="evenodd" clip-rule="evenodd" d="M84.0472 31.3816C74.3746 36.0562 66.2174 44.8564 62.5456 59.3343C61.7832 62.3405 59.2984 64.7074 56.1766 65.2602C35.713 68.8833 26.4492 83.5802 27.1174 96.862C27.7704 109.841 38.1324 123.735 62.2571 125.127C65.7032 125.326 68.3355 128.281 68.1366 131.727C67.9377 135.173 64.9829 137.805 61.5369 137.606C32.0458 135.904 15.6551 117.801 14.6332 97.4902C13.6631 78.2094 26.7578 59.0416 51.1853 53.5176C56.0827 37.0899 66.1971 26.1249 78.6081 20.127C91.5194 13.8873 106.472 13.2217 119.903 16.602C133.31 19.9761 145.805 27.5369 153.556 38.519C160.579 48.4702 163.47 60.936 159.879 74.6743C175.754 77.8831 185.027 91.4698 185.405 105.132C185.616 112.777 183.074 120.615 177.31 126.761C171.519 132.935 162.912 136.945 151.797 137.761C148.355 138.014 145.359 135.428 145.107 131.986C144.854 128.543 147.44 125.548 150.882 125.295C159.436 124.667 164.908 121.712 168.193 118.209C171.505 114.677 173.038 110.126 172.909 105.478C172.65 96.0934 165.744 87.0022 153.735 86.4883C148.184 86.2508 144.607 80.5969 146.503 75.5395C150.96 63.647 148.893 53.5893 143.343 45.7268C137.637 37.641 127.951 31.5173 116.852 28.724C105.778 25.9368 93.8981 26.6209 84.0472 31.3816Z" fill="black"/>
<path fill-rule="evenodd" clip-rule="evenodd" d="M116.704 94.5425C120.598 96.1582 123.351 100.039 123.351 104.742V128.074H128.644C133.511 128.074 136.946 131.267 138.374 134.732C139.794 138.181 139.584 142.607 136.775 146.118L108.506 181.438C108.504 181.441 108.502 181.444 108.5 181.446C105.362 185.383 100.459 186.281 96.4666 184.624C92.5724 183.008 89.8195 179.127 89.8195 174.424V151.092H84.5263C79.6478 151.092 76.2388 147.866 74.825 144.434C73.4162 141.014 73.5937 136.605 76.3672 133.086L76.3965 133.048L104.664 97.7287C104.666 97.7258 104.669 97.7229 104.671 97.72C107.809 93.7838 112.712 92.8861 116.704 94.5425ZM110.851 110.003L87.9701 138.592H96.0695C99.5212 138.592 102.319 141.391 102.319 144.842V169.164L125.201 140.574H117.101C113.649 140.574 110.851 137.776 110.851 134.324V110.003Z" fill="black"/>
</svg>
