<svg width="200" height="200" viewBox="0 0 200 200" fill="none" xmlns="http://www.w3.org/2000/svg">
<g clip-path="url(#clip0_2_599)">
<path fill-rule="evenodd" clip-rule="evenodd" d="M110.221 89.0472C114.76 88.2613 119.14 90.7963 120.719 95.1271C122.247 99.2892 125.056 107.943 126.167 117.93C127.266 127.808 126.8 139.855 120.858 150.11C111.211 166.813 90.276 173.797 73.811 164.29C57.3408 154.781 52.9513 133.13 62.5814 116.434C68.5281 106.023 78.6961 99.5772 87.8 95.606C96.9832 91.6002 105.848 89.7796 110.221 89.0472ZM109.82 101.828C105.606 102.666 99.2425 104.252 92.7978 107.063C84.8183 110.544 77.4631 115.576 73.4303 122.643L73.4147 122.67C66.7591 134.198 70.3427 147.854 80.061 153.465C89.7877 159.081 103.385 155.374 110.035 143.855L110.04 143.846C114.045 136.937 114.714 128.04 113.744 119.311C112.962 112.282 111.179 105.919 109.82 101.828Z" fill="black"/>
<path fill-rule="evenodd" clip-rule="evenodd" d="M183.073 65.1055C184.138 68.0086 186.098 74.041 186.876 81.0306C187.641 87.9114 187.358 96.5834 183.02 104.073C175.998 116.232 160.625 121.494 148.378 114.423C136.127 107.35 133.021 91.3869 140.027 79.2372C144.366 71.6428 151.711 67.0463 158.062 64.2755C164.494 61.4698 170.679 60.2011 173.728 59.6901C177.762 58.9944 181.669 61.2568 183.073 65.1055ZM172.425 72.6916C173.202 75.2865 174.041 78.7139 174.452 82.4122C175.09 88.1437 174.603 93.6671 172.201 97.8113L172.196 97.8205C168.17 104.793 160.136 106.778 154.628 103.598C149.129 100.423 146.829 92.4549 150.86 85.4735L150.875 85.4462C153.301 81.1957 157.833 78.0131 163.06 75.7329C166.442 74.2575 169.803 73.2966 172.425 72.6916Z" fill="black"/>
<path fill-rule="evenodd" clip-rule="evenodd" d="M71.4949 35.2247C72.7225 38.5695 74.9808 45.5214 75.875 53.5626C76.7572 61.4958 76.4102 71.3526 71.5079 79.8131C63.5648 93.5648 46.2412 99.4296 32.5153 91.5049C18.7838 83.5771 15.2277 65.6184 23.154 51.8737C28.0572 43.2912 36.3924 38.0458 43.7098 34.8539C51.107 31.6271 58.2323 30.1648 61.7452 29.5761C65.9568 28.8488 70.0297 31.2068 71.4949 35.2247ZM60.7644 42.4908C61.7564 45.6497 62.9126 50.097 63.4516 54.9442C64.2059 61.7273 63.6553 68.4344 60.691 73.5486L60.6856 73.5578C55.7392 82.1253 45.7531 84.714 38.7653 80.6796C31.7857 76.65 29.0355 66.6865 33.9872 58.1101L34.0028 58.0827C36.9923 52.8441 42.5147 49.0127 48.7076 46.3113C53.146 44.3752 57.5444 43.1873 60.7644 42.4908Z" fill="black"/>
</g>
<defs>
<clipPath id="clip0_2_599">
<rect width="200" height="200" fill="white"/>
</clipPath>
</defs>
</svg>
