<svg width="200" height="200" viewBox="0 0 200 200" fill="none" xmlns="http://www.w3.org/2000/svg">
<path fill-rule="evenodd" clip-rule="evenodd" d="M132.068 81.8667C132.068 68.0646 142.674 56.1017 156.659 56.1017C170.547 56.1017 181.25 67.9609 181.25 81.8667C181.25 95.6687 170.644 107.632 156.659 107.632H120.455C117.003 107.632 114.205 104.833 114.205 101.382C114.205 97.9298 117.003 95.1316 120.455 95.1316H156.659C162.992 95.1316 168.75 89.5383 168.75 81.8667C168.75 74.1536 162.953 68.6017 156.659 68.6017C150.326 68.6017 144.568 74.195 144.568 81.8667C144.568 85.3184 141.77 88.1167 138.318 88.1167C134.866 88.1167 132.068 85.3184 132.068 81.8667Z" fill="black"/>
<path fill-rule="evenodd" clip-rule="evenodd" d="M68.3522 58.7245C68.3522 41.9345 80.7783 27.0833 97.5284 27.0833C114.165 27.0833 126.705 41.8085 126.705 58.7245C126.705 75.5146 114.278 90.3657 97.5284 90.3657H45.4546C42.0028 90.3657 39.2046 87.5675 39.2046 84.1157C39.2046 80.6639 42.0028 77.8657 45.4546 77.8657H97.5284C106.176 77.8657 114.205 69.8742 114.205 58.7245C114.205 47.5121 106.119 39.5833 97.5284 39.5833C88.8807 39.5833 80.8522 47.5749 80.8522 58.7245C80.8522 62.1763 78.054 64.9745 74.6022 64.9745C71.1505 64.9745 68.3522 62.1763 68.3522 58.7245Z" fill="black"/>
<path fill-rule="evenodd" clip-rule="evenodd" d="M68.3522 142.153C68.3522 158.943 80.7783 173.794 97.5284 173.794C114.165 173.794 126.705 159.069 126.705 142.153C126.705 125.363 114.278 110.512 97.5284 110.512H25C21.5482 110.512 18.75 113.31 18.75 116.762C18.75 120.213 21.5482 123.012 25 123.012H97.5284C106.176 123.012 114.205 131.003 114.205 142.153C114.205 153.365 106.119 161.294 97.5284 161.294C88.8807 161.294 80.8522 153.302 80.8522 142.153C80.8522 138.701 78.054 135.903 74.6022 135.903C71.1504 135.903 68.3522 138.701 68.3522 142.153Z" fill="black"/>
</svg>
