<svg width="200" height="200" viewBox="0 0 200 200" fill="none" xmlns="http://www.w3.org/2000/svg">
<path fill-rule="evenodd" clip-rule="evenodd" d="M83.07 52.4913C72.7907 57.4792 64.1271 66.8774 60.2425 82.3146C59.4831 85.3323 56.9898 87.7019 53.868 88.2536C31.0582 92.2845 21.2439 109.38 23.1509 124.249C24.1136 131.755 28.0575 139.005 35.2981 144.26C42.5547 149.528 53.5089 153.053 68.7846 152.226C79.2146 151.661 102.133 151.95 121.828 152.198C131.348 152.318 140.114 152.428 146.353 152.428H146.532L146.71 152.439C157.992 153.084 165.401 150.378 169.955 146.722C174.495 143.075 176.769 138.04 177.053 132.797C177.632 122.105 170.051 111.213 156.465 110.685C150.918 110.47 147.293 104.818 149.208 99.733C153.997 87.0167 151.822 76.2345 145.925 67.8133C139.873 59.1696 129.6 52.6453 117.85 49.6688C106.124 46.6983 93.5275 47.4169 83.07 52.4913ZM162.615 98.8373C166.507 84.3188 163.524 71.1525 156.165 60.6432C148.075 49.0909 134.989 41.1158 120.919 37.5515C106.826 33.9813 91.1417 34.6807 77.613 41.2453C64.5834 47.5678 53.9744 59.1408 48.8712 76.5086C21.7848 82.5693 8.03469 104.648 10.7525 125.839C12.1487 136.726 17.8968 147.075 27.9552 154.376C37.9977 161.666 51.9494 165.656 69.4604 164.708C79.4841 164.165 101.39 164.443 120.809 164.689C130.471 164.812 139.517 164.926 146.178 164.928C159.673 165.667 170.299 162.476 177.781 156.468C185.309 150.424 189.074 141.977 189.535 133.473C190.361 118.22 180.458 102.265 162.615 98.8373Z" fill="black"/>
</svg>
