<svg width="200" height="200" viewBox="0 0 200 200" fill="none" xmlns="http://www.w3.org/2000/svg">
<mask id="mask0_4_3760" style="mask-type:luminance" maskUnits="userSpaceOnUse" x="16" y="25" width="168" height="152">
<path fill-rule="evenodd" clip-rule="evenodd" d="M16.6666 25H183.448V176.546H16.6666V25Z" fill="white"/>
</mask>
<g mask="url(#mask0_4_3760)">
<path fill-rule="evenodd" clip-rule="evenodd" d="M100.106 37.5C96.1392 37.5 92.6058 39.55 90.6225 42.9917L30.6392 147.7C28.6892 151.117 28.7058 155.192 30.6808 158.6C32.6558 162.008 36.1892 164.05 40.1308 164.05H159.989C163.923 164.05 167.456 162.008 169.431 158.6C171.414 155.192 171.431 151.117 169.464 147.7L109.589 42.9917C107.614 39.55 104.081 37.5 100.106 37.5M159.989 176.55H40.1308C31.6808 176.55 24.1058 172.183 19.8642 164.867C15.6225 157.558 15.5975 148.817 19.7892 141.492L79.7892 36.775C84.0058 29.4 91.5975 25 100.106 25H100.114C108.614 25 116.223 29.4083 120.439 36.7917L180.323 141.492C184.514 148.817 184.489 157.558 180.248 164.867C176.006 172.183 168.431 176.55 159.989 176.55" fill="black"/>
</g>
<path fill-rule="evenodd" clip-rule="evenodd" d="M100.032 118.033C96.5825 118.033 93.7825 115.233 93.7825 111.783V85.95C93.7825 82.5 96.5825 79.7 100.032 79.7C103.482 79.7 106.282 82.5 106.282 85.95V111.783C106.282 115.233 103.482 118.033 100.032 118.033" fill="black"/>
<path fill-rule="evenodd" clip-rule="evenodd" d="M100.049 145.825C95.4407 145.825 91.6741 142.1 91.6741 137.492C91.6741 132.883 95.3657 129.158 99.9657 129.158H100.049C104.657 129.158 108.382 132.883 108.382 137.492C108.382 142.1 104.657 145.825 100.049 145.825" fill="black"/>
</svg>
