<svg width="200" height="200" viewBox="0 0 200 200" fill="none" xmlns="http://www.w3.org/2000/svg">
<path fill-rule="evenodd" clip-rule="evenodd" d="M93.4393 43.7332C84.3913 48.2424 76.6735 56.7738 73.1868 70.9289C72.4564 73.8942 70.0334 76.3167 66.8649 76.8986C45.9243 80.7443 37.3024 97.4786 40.0973 111.579C40.7685 114.965 38.5677 118.253 35.1818 118.925C31.7959 119.596 28.507 117.395 27.8359 114.009C23.8001 93.6494 36.0603 71.2891 61.785 65.1966C66.434 49.1961 76.0187 38.4487 87.8638 32.5456C100.203 26.3963 114.489 25.7434 127.309 29.0708C140.109 32.3932 152.008 39.831 159.379 50.5965C166.043 60.3275 168.781 72.4838 165.408 85.8782C181.577 89.3649 190.325 104.356 189.533 118.389C189.086 126.301 185.65 134.203 178.741 139.88C171.864 145.531 162.133 148.505 149.871 147.819C145.236 147.818 140.998 147.75 135.731 147.665C132.594 147.615 129.092 147.559 124.923 147.508C121.471 147.465 118.708 144.633 118.75 141.181C118.793 137.729 121.626 134.966 125.077 135.009C129.379 135.062 132.927 135.119 136.071 135.169C141.315 135.253 145.435 135.319 150.051 135.319H150.235L150.418 135.33C160.389 135.916 166.857 133.466 170.806 130.221C174.759 126.974 176.783 122.454 177.053 117.684C177.607 107.874 170.9 98.2088 159.305 97.6519C153.858 97.3903 150.229 91.8642 152.07 86.7827C156.285 75.1521 154.309 65.3164 149.066 57.6588C143.684 49.7995 134.576 43.8714 124.168 41.1699C113.78 38.4736 102.658 39.139 93.4393 43.7332Z" fill="black"/>
<path fill-rule="evenodd" clip-rule="evenodd" d="M60.0375 98.1278C54.1631 100.983 49.107 106.353 46.7434 115.42C45.9686 118.392 43.5203 120.718 40.4553 121.296C27.2393 123.792 21.9541 133.65 23.0618 141.895C23.6241 146.08 25.8318 150.14 29.9407 153.114C34.0646 156.099 40.4896 158.25 49.7836 157.745C56.511 157.379 71.3166 157.566 83.925 157.725C89.9534 157.802 95.4796 157.871 99.3803 157.871H99.5597L99.7388 157.882C108.711 158.397 113.067 155.394 114.988 152.59C117.058 149.567 117.282 145.424 115.593 141.873C114.047 138.622 110.981 136.064 106.399 135.674C101.199 135.232 97.5951 129.944 99.3402 124.864C101.83 117.617 100.443 111.617 97.0277 106.904C93.4656 101.989 87.436 98.1742 80.4349 96.4391C73.4558 94.7094 66.0827 95.19 60.0375 98.1278ZM112.46 124.151C114.322 114.834 112.067 106.355 107.15 99.5696C101.551 91.8441 92.758 86.6151 83.4419 84.3062C74.1039 81.9919 63.6657 82.4667 54.5738 86.8852C45.9811 91.061 38.9856 98.5807 35.4187 109.62C17.8171 114.172 8.72916 129.089 10.6731 143.559C11.6856 151.096 15.6928 158.232 22.6116 163.24C29.5154 168.237 38.9308 170.853 50.4622 170.226C56.7816 169.883 70.5703 170.059 82.9018 170.216C89.0752 170.295 94.8835 170.369 99.2064 170.371C111.282 171.018 120.331 166.908 125.3 159.653C130.145 152.581 130.279 143.649 126.881 136.504C124.185 130.835 119.205 126.145 112.46 124.151Z" fill="black"/>
</svg>
