<svg width="200" height="200" viewBox="0 0 200 200" fill="none" xmlns="http://www.w3.org/2000/svg">
<path fill-rule="evenodd" clip-rule="evenodd" d="M55 154.167C55 149.564 58.731 145.833 63.3333 145.833H63.4167C68.019 145.833 71.75 149.564 71.75 154.167C71.75 158.769 68.019 162.5 63.4167 162.5H63.3333C58.731 162.5 55 158.769 55 154.167Z" fill="black"/>
<path fill-rule="evenodd" clip-rule="evenodd" d="M91.6667 154.167C91.6667 149.564 95.3976 145.833 100 145.833H100.083C104.686 145.833 108.417 149.564 108.417 154.167C108.417 158.769 104.686 162.5 100.083 162.5H100C95.3976 162.5 91.6667 158.769 91.6667 154.167Z" fill="black"/>
<path fill-rule="evenodd" clip-rule="evenodd" d="M128.333 154.167C128.333 149.564 132.064 145.833 136.667 145.833H136.75C141.352 145.833 145.083 149.564 145.083 154.167C145.083 158.769 141.352 162.5 136.75 162.5H136.667C132.064 162.5 128.333 158.769 128.333 154.167Z" fill="black"/>
<path fill-rule="evenodd" clip-rule="evenodd" d="M110 172.5C110 167.897 113.731 164.166 118.333 164.166H118.417C123.019 164.166 126.75 167.897 126.75 172.5C126.75 177.102 123.019 180.833 118.417 180.833H118.333C113.731 180.833 110 177.102 110 172.5Z" fill="black"/>
<path fill-rule="evenodd" clip-rule="evenodd" d="M73.3333 172.5C73.3333 167.897 77.0643 164.166 81.6667 164.166H81.75C86.3524 164.166 90.0833 167.897 90.0833 172.5C90.0833 177.102 86.3524 180.833 81.75 180.833H81.6667C77.0643 180.833 73.3333 177.102 73.3333 172.5Z" fill="black"/>
<path fill-rule="evenodd" clip-rule="evenodd" d="M85.1222 35.4254C76.0774 39.9643 68.3465 48.5618 64.8544 62.8443C64.1155 65.8665 61.6412 68.251 58.5275 68.8277C38.5138 72.5343 29.7363 88.1321 31.4634 101.929C32.3316 108.864 35.8529 115.502 42.2337 120.289C48.6172 125.078 58.2852 128.316 71.8606 127.555C81.2753 127.028 101.971 127.297 119.714 127.529C128.266 127.64 136.132 127.743 141.718 127.743H141.903L142.087 127.754C152.048 128.344 158.509 125.879 162.457 122.612C166.413 119.339 168.449 114.772 168.719 109.944C169.276 99.9999 162.526 90.281 150.965 89.7244C145.531 89.4627 141.893 83.9543 143.726 78.8698C147.957 67.1272 145.979 57.1911 140.727 49.4626C135.341 41.5366 126.231 35.5676 115.831 32.848C105.45 30.1333 94.3358 30.8018 85.1222 35.4254ZM157.063 77.9518C160.451 64.4699 157.724 52.2353 151.065 42.437C143.702 31.601 131.804 24.1047 118.993 20.7546C106.163 17.3996 91.8636 18.0568 79.5158 24.2532C67.6607 30.2023 58.083 41.0277 53.4423 57.1307C28.8604 62.9922 16.5943 83.7835 19.0602 103.482C20.3345 113.662 25.5454 123.396 34.7322 130.288C43.9164 137.178 56.6513 140.927 72.56 140.036C81.5542 139.532 101.202 139.79 118.659 140.019C127.359 140.133 135.515 140.241 141.537 140.243C153.81 140.933 163.548 137.934 170.426 132.243C177.331 126.529 180.755 118.585 181.2 110.643C181.988 96.5637 173.265 81.4561 157.063 77.9518Z" fill="black"/>
</svg>
