<svg width="200" height="200" viewBox="0 0 200 200" fill="none" xmlns="http://www.w3.org/2000/svg">
<path fill-rule="evenodd" clip-rule="evenodd" d="M100 20.4167C103.452 20.4167 106.25 23.2149 106.25 26.6667V42.5557C106.25 46.0075 103.452 48.8057 100 48.8057C96.5482 48.8057 93.75 46.0075 93.75 42.5557V26.6667C93.75 23.2149 96.5482 20.4167 100 20.4167ZM168.586 49.7474C171.027 52.1881 171.027 56.1454 168.586 58.5862L157.968 69.2043C155.527 71.645 151.57 71.645 149.129 69.2043C146.688 66.7635 146.688 62.8062 149.129 60.3654L159.747 49.7474C162.188 47.3066 166.145 47.3066 168.586 49.7474ZM31.4139 49.7474C33.8547 47.3066 37.812 47.3066 40.2528 49.7474L50.8708 60.3654C53.3116 62.8062 53.3116 66.7635 50.8708 69.2043C48.43 71.645 44.4728 71.645 42.032 69.2043L31.4139 58.5862C28.9732 56.1454 28.9732 52.1881 31.4139 49.7474ZM2.08334 118.333C2.08334 114.882 4.88156 112.083 8.33334 112.083H23.6111C27.0629 112.083 29.8611 114.882 29.8611 118.333C29.8611 121.785 27.0629 124.583 23.6111 124.583H8.33334C4.88156 124.583 2.08334 121.785 2.08334 118.333ZM170.139 118.333C170.139 114.882 172.937 112.083 176.389 112.083H191.667C195.118 112.083 197.917 114.882 197.917 118.333C197.917 121.785 195.118 124.583 191.667 124.583H176.389C172.937 124.583 170.139 121.785 170.139 118.333Z" fill="black"/>
<path fill-rule="evenodd" clip-rule="evenodd" d="M100 78.75C78.1387 78.75 60.4167 96.472 60.4167 118.333C60.4167 121.785 57.6185 124.583 54.1667 124.583C50.7149 124.583 47.9167 121.785 47.9167 118.333C47.9167 89.5685 71.2352 66.25 100 66.25C128.765 66.25 152.083 89.5685 152.083 118.333C152.083 121.785 149.285 124.583 145.833 124.583C142.382 124.583 139.583 121.785 139.583 118.333C139.583 96.472 121.861 78.75 100 78.75Z" fill="black"/>
<path fill-rule="evenodd" clip-rule="evenodd" d="M29.5833 145.834C29.5833 142.382 32.3815 139.584 35.8333 139.584H164.167C167.618 139.584 170.417 142.382 170.417 145.834C170.417 149.285 167.618 152.084 164.167 152.084H35.8333C32.3815 152.084 29.5833 149.285 29.5833 145.834Z" fill="black"/>
<path fill-rule="evenodd" clip-rule="evenodd" d="M47.9167 173.333C47.9167 169.881 50.7149 167.083 54.1667 167.083H145.833C149.285 167.083 152.083 169.881 152.083 173.333C152.083 176.785 149.285 179.583 145.833 179.583H54.1667C50.7149 179.583 47.9167 176.785 47.9167 173.333Z" fill="black"/>
</svg>
