<svg width="200" height="200" viewBox="0 0 200 200" fill="none" xmlns="http://www.w3.org/2000/svg">
<path fill-rule="evenodd" clip-rule="evenodd" d="M88.9798 21.7363C94.1384 26.4328 92.8708 33.5898 90.54 38.7722L90.5355 38.782C87.0977 46.3903 85.2117 54.7205 85.2817 63.5268L85.2819 63.5497C85.4213 96.1659 113.493 124.336 148.279 125.714C153.404 125.921 158.307 125.577 163.062 124.753C166.219 124.196 169.306 124.099 172.083 124.726C174.897 125.361 177.794 126.857 179.618 129.748C181.455 132.658 181.541 135.929 180.849 138.747C180.172 141.506 178.69 144.185 176.785 146.684C160.216 168.632 132.704 182.453 102.079 181.167C58.6524 179.318 22.0146 145.64 18.9771 103.624C16.2032 66.3846 39.0359 34.1123 71.9453 20.6747C77.2227 18.5106 84.1645 17.3524 88.9798 21.7363ZM79.9543 31.2965C79.1965 31.3929 78.1096 31.6565 76.6816 32.2427L76.6706 32.2472C48.2489 43.8523 29.1094 71.4113 31.443 102.701L31.4441 102.716C33.9861 137.925 65.0318 167.077 102.604 168.678C129.125 169.792 152.719 157.825 166.817 139.141L166.837 139.115C167.559 138.17 168.021 137.395 168.311 136.801C167.581 136.773 166.566 136.827 165.227 137.064L165.208 137.067C159.588 138.042 153.803 138.447 147.78 138.204C106.835 136.58 72.9587 103.423 72.782 63.6146C72.6988 52.9318 74.9938 42.8221 79.1425 33.6391C79.5916 32.6397 79.8316 31.8634 79.9543 31.2965Z" fill="black"/>
</svg>
