<svg width="200" height="200" viewBox="0 0 200 200" fill="none" xmlns="http://www.w3.org/2000/svg">
<path fill-rule="evenodd" clip-rule="evenodd" d="M104.457 80.5302C95.7159 84.7112 88.3464 92.5645 85.006 105.51C84.232 108.509 81.7462 110.857 78.6405 111.407C59.1251 114.863 51.0064 129.218 52.6161 141.435C53.432 147.627 56.7409 153.644 62.8821 158.033C69.0442 162.436 78.426 165.441 91.6256 164.736C100.754 164.249 120.821 164.498 138.029 164.712C146.327 164.815 153.96 164.91 159.382 164.91H159.558L159.734 164.92C169.422 165.466 175.687 163.179 179.479 160.196C183.25 157.23 185.128 153.159 185.386 148.922C185.913 140.261 179.752 131.286 168.452 130.72C162.944 130.444 159.373 124.83 161.257 119.771C165.194 109.199 163.296 100.301 158.287 93.3273C153.116 86.1269 144.336 80.6358 134.234 78.1318C124.158 75.6341 113.378 76.2636 104.457 80.5302ZM174.581 118.96C177.705 106.455 174.95 95.0984 168.44 86.0352C161.206 75.9637 149.622 69.0678 137.242 65.999C124.837 62.9239 111.019 63.5357 99.0638 69.2537C87.6123 74.731 78.2555 84.7253 73.6703 99.6648C49.9726 105.105 37.7602 124.375 40.2232 143.068C41.4912 152.692 46.6553 161.801 55.6145 168.203C64.5527 174.59 76.8986 178.04 92.2922 177.218C101.02 176.752 120.088 176.991 137.024 177.203C145.462 177.309 153.372 177.408 159.21 177.41C171.062 178.046 180.498 175.298 187.207 170.02C193.972 164.699 197.403 157.231 197.863 149.681C198.678 136.282 190.063 122.339 174.581 118.96Z" fill="black"/>
<path fill-rule="evenodd" clip-rule="evenodd" d="M39.381 22.8808C42.6234 21.6969 46.2116 23.3657 47.3955 26.6081L50.7461 35.7849C51.93 39.0273 50.2612 42.6155 47.0188 43.7993C43.7764 44.9832 40.1882 43.3144 39.0043 40.072L35.6537 30.8953C34.4698 27.6529 36.1386 24.0647 39.381 22.8808ZM86.6929 25.3132C89.8308 26.7512 91.2089 30.4608 89.7708 33.5988L85.9261 41.9883C84.4881 45.1262 80.7785 46.5043 77.6405 45.0662C74.5026 43.6282 73.1245 39.9186 74.5626 36.7806L78.4073 28.3911C79.8453 25.2532 83.5549 23.8751 86.6929 25.3132ZM76.5367 66.4828C70.7238 60.3742 61.6955 57.9921 53.3633 61.0832C42.1175 65.2553 36.294 77.8711 40.4645 89.2935C41.3414 91.6952 42.5828 93.8368 44.0963 95.6872C46.2818 98.359 45.8876 102.297 43.2158 104.482C40.544 106.668 36.6064 106.273 34.4209 103.601C32.0302 100.679 30.0856 97.3136 28.7227 93.5807C22.2174 75.7639 31.2543 55.9529 49.0155 49.3637C62.2207 44.4648 76.473 48.283 85.592 57.8659C87.9715 60.3664 87.8733 64.3225 85.3728 66.702C82.8722 69.0815 78.9162 68.9834 76.5367 66.4828ZM4.8925 55.6357C6.34957 52.5065 10.0675 51.151 13.1966 52.6081L21.5195 56.4836C24.6487 57.9406 26.0042 61.6585 24.5471 64.7877C23.0901 67.9169 19.3722 69.2724 16.243 67.8153L7.92012 63.9398C4.79094 62.4828 3.43544 58.7649 4.8925 55.6357ZM22.9464 95.7577C24.147 98.9939 22.4968 102.591 19.2605 103.791L10.5069 107.039C7.27064 108.239 3.67386 106.589 2.47325 103.353C1.27264 100.117 2.92285 96.5199 6.1591 95.3193L14.9128 92.0718C18.149 90.8712 21.7458 92.5214 22.9464 95.7577Z" fill="black"/>
</svg>
