<svg width="200" height="200" viewBox="0 0 200 200" fill="none" xmlns="http://www.w3.org/2000/svg">
<path fill-rule="evenodd" clip-rule="evenodd" d="M41.7978 10.7659C45.0567 9.62825 48.6208 11.3479 49.7584 14.6068L52.5033 22.47C53.6409 25.729 51.9212 29.2931 48.6623 30.4307C45.4034 31.5683 41.8393 29.8486 40.7016 26.5897L37.9568 18.7265C36.8192 15.4676 38.5388 11.9035 41.7978 10.7659ZM81.235 12.8642C84.3967 14.2494 85.8367 17.9354 84.4515 21.097L81.3019 28.2857C79.9166 31.4473 76.2307 32.8874 73.0691 31.5021C69.9074 30.1169 68.4674 26.4309 69.8526 23.2693L73.0022 16.0807C74.3875 12.919 78.0734 11.479 81.235 12.8642ZM71.6259 49.5112C67.1332 44.5729 60.2926 42.7483 54.0361 45.176C45.5029 48.4872 40.7427 58.7578 44.0805 68.3195C44.7726 70.3023 45.7476 72.0566 46.9246 73.5616C49.051 76.2807 48.5705 80.2087 45.8515 82.3351C43.1324 84.4615 39.2044 83.9811 37.078 81.262C35.0565 78.6771 33.4216 75.7128 32.2788 72.4392C26.8709 56.947 34.2845 39.4323 49.5141 33.5226C60.9013 29.104 73.1325 32.5922 80.872 41.0993C83.1949 43.6525 83.0081 47.6054 80.4549 49.9283C77.9017 52.2512 73.9488 52.0644 71.6259 49.5112ZM12.8707 39.2265C14.3822 36.1232 18.1231 34.8327 21.2264 36.3442L28.0446 39.6649C31.1479 41.1763 32.4383 44.9173 30.9269 48.0206C29.4155 51.1239 25.6745 52.4143 22.5712 50.9029L15.753 47.5822C12.6498 46.0707 11.3593 42.3298 12.8707 39.2265ZM29.6645 73.6832C30.9132 76.9012 29.3167 80.5222 26.0987 81.7709L18.9277 84.5536C15.7097 85.8023 12.0887 84.2059 10.84 80.9879C9.59126 77.7699 11.1877 74.1489 14.4057 72.9002L21.5768 70.1175C24.7948 68.8688 28.4157 70.4652 29.6645 73.6832Z" fill="black"/>
<path fill-rule="evenodd" clip-rule="evenodd" d="M100.118 59.4425C91.9814 63.4515 85.0368 71.021 81.8752 83.6168C81.1204 86.624 78.6481 88.9875 75.5463 89.558C57.4462 92.8874 49.7346 106.678 51.2742 118.648C52.0509 124.687 55.1795 130.498 60.9054 134.712C66.6413 138.933 75.3868 141.83 87.7454 141.15C96.3859 140.674 115.384 140.917 131.65 141.126C139.478 141.226 146.673 141.318 151.777 141.318H151.959L152.14 141.328C161.171 141.854 166.963 139.662 170.46 136.833C173.954 134.007 175.739 130.089 175.992 125.952C176.513 117.423 170.662 108.938 160.407 108.364C154.985 108.06 151.395 102.557 153.218 97.494C156.922 87.2055 155.112 78.5496 150.399 71.7963C145.543 64.8372 137.322 59.5504 127.889 57.1417C118.476 54.7384 108.427 55.3485 100.118 59.4425ZM166.503 96.6493C169.419 84.5054 166.812 73.4733 160.65 64.6429C153.783 54.8019 142.774 48.0412 130.981 45.0303C119.168 42.014 105.995 42.6122 94.5934 48.2296C83.6886 53.6025 74.8435 63.3633 70.4991 77.8545C47.9606 83.2762 36.5511 102.164 38.8763 120.243C40.079 129.593 44.9593 138.497 53.4964 144.78C62.0235 151.055 73.7951 154.436 88.4324 153.631C96.6598 153.178 114.629 153.41 130.615 153.616C138.588 153.719 146.068 153.816 151.6 153.818C162.881 154.439 171.902 151.744 178.321 146.552C184.78 141.328 188.022 134.035 188.469 126.714C189.257 113.82 181.26 100.093 166.503 96.6493Z" fill="black"/>
<path fill-rule="evenodd" clip-rule="evenodd" d="M88.9235 159.207C91.9197 160.921 92.9592 164.739 91.2453 167.736L81.9931 183.91C80.2792 186.906 76.4608 187.946 73.4646 186.232C70.4684 184.518 69.4289 180.7 71.1428 177.704L80.3951 161.529C82.109 158.533 85.9273 157.493 88.9235 159.207Z" fill="black"/>
<path fill-rule="evenodd" clip-rule="evenodd" d="M135.59 160.041C138.586 161.755 139.626 165.573 137.912 168.57L128.66 184.744C126.946 187.741 123.128 188.78 120.131 187.066C117.135 185.352 116.096 181.534 117.81 178.538L127.062 162.363C128.776 159.367 132.594 158.327 135.59 160.041Z" fill="black"/>
<path fill-rule="evenodd" clip-rule="evenodd" d="M107.414 169.65C110.425 171.336 111.499 175.145 109.813 178.157L105.26 186.286C103.573 189.297 99.7648 190.371 96.7531 188.685C93.7415 186.998 92.6674 183.189 94.354 180.178L98.9066 172.049C100.593 169.037 104.402 167.963 107.414 169.65Z" fill="black"/>
<path fill-rule="evenodd" clip-rule="evenodd" d="M156.383 170.575C159.394 172.262 160.468 176.071 158.782 179.082L154.229 187.211C152.542 190.223 148.734 191.297 145.722 189.61C142.71 187.924 141.636 184.115 143.323 181.103L147.876 172.974C149.562 169.963 153.371 168.889 156.383 170.575Z" fill="black"/>
</svg>
