<svg width="200" height="200" viewBox="0 0 200 200" fill="none" xmlns="http://www.w3.org/2000/svg">
<path fill-rule="evenodd" clip-rule="evenodd" d="M85.1222 33.7577C76.0774 38.2966 68.3465 46.8942 64.8544 61.1766C64.1155 64.1989 61.6412 66.5834 58.5275 67.16C38.5138 70.8667 29.7363 86.4645 31.4634 100.261C32.3316 107.197 35.8529 113.834 42.2337 118.621C48.6172 123.41 58.2852 126.648 71.8606 125.888C81.2753 125.36 101.971 125.63 119.714 125.861C128.266 125.973 136.132 126.075 141.718 126.075H141.903L142.087 126.086C152.048 126.676 158.509 124.212 162.457 120.945C166.413 117.671 168.449 113.104 168.719 108.276C169.276 98.3323 162.526 88.6133 150.965 88.0567C145.531 87.7951 141.893 82.2867 143.726 77.2021C147.957 65.4595 145.979 55.5235 140.727 47.795C135.341 39.8689 126.231 33.8999 115.831 31.1803C105.45 28.4656 94.3358 29.1342 85.1222 33.7577ZM157.063 76.2841C160.451 62.8022 157.724 50.5676 151.065 40.7693C143.702 29.9333 131.804 22.4371 118.993 19.087C106.163 15.7319 91.8636 16.3891 79.5158 22.5855C67.6607 28.5347 58.083 39.3601 53.4423 55.4631C28.8604 61.3246 16.5943 82.1159 19.0602 101.814C20.3345 111.994 25.5454 121.728 34.7322 128.62C43.9163 135.51 56.6513 139.26 72.56 138.368C81.5542 137.864 101.202 138.122 118.659 138.352C127.359 138.466 135.515 138.573 141.537 138.575C153.81 139.266 163.548 136.267 170.426 130.575C177.331 124.861 180.755 116.917 181.2 108.975C181.988 94.8961 173.265 79.7885 157.063 76.2841Z" fill="black"/>
<path fill-rule="evenodd" clip-rule="evenodd" d="M118.334 171.667C118.334 167.065 122.065 163.334 126.667 163.334H126.751C131.353 163.334 135.084 167.065 135.084 171.667C135.084 176.269 131.353 180 126.751 180H126.667C122.065 180 118.334 176.269 118.334 171.667Z" fill="black"/>
<path fill-rule="evenodd" clip-rule="evenodd" d="M95.8325 153.334C95.8325 148.731 99.5635 145 104.166 145H104.249C108.852 145 112.583 148.731 112.583 153.334C112.583 157.936 108.852 161.667 104.249 161.667H104.166C99.5635 161.667 95.8325 157.936 95.8325 153.334Z" fill="black"/>
<path fill-rule="evenodd" clip-rule="evenodd" d="M45.8325 153.334C45.8325 148.731 49.5635 145 54.1659 145H54.2492C58.8516 145 62.5825 148.731 62.5825 153.334C62.5825 157.936 58.8516 161.667 54.2492 161.667H54.1659C49.5635 161.667 45.8325 157.936 45.8325 153.334Z" fill="black"/>
<path fill-rule="evenodd" clip-rule="evenodd" d="M86.4229 154.966C89.4191 156.679 90.4586 160.498 88.7447 163.494L79.4924 179.669C77.7785 182.665 73.9602 183.704 70.964 181.99C67.9678 180.277 66.9283 176.458 68.6422 173.462L77.8945 157.287C79.6084 154.291 83.4267 153.252 86.4229 154.966Z" fill="black"/>
<path fill-rule="evenodd" clip-rule="evenodd" d="M158.925 142.466C161.921 144.179 162.96 147.998 161.246 150.994L151.994 167.169C150.28 170.165 146.462 171.204 143.466 169.49C140.469 167.776 139.43 163.958 141.144 160.962L150.396 144.787C152.11 141.791 155.928 140.752 158.925 142.466Z" fill="black"/>
</svg>
