<svg width="200" height="200" viewBox="0 0 200 200" fill="none" xmlns="http://www.w3.org/2000/svg">
<path fill-rule="evenodd" clip-rule="evenodd" d="M45.5961 49.5337C43.1493 51.891 42.5 53.7863 42.5 55.1445C42.5 56.5026 43.1493 58.3979 45.5961 60.7552C48.0605 63.1295 51.9554 65.5557 57.2805 67.7256C67.8993 72.0527 82.9998 74.8723 100 74.8723C117 74.8723 132.101 72.0527 142.72 67.7256C148.045 65.5557 151.939 63.1295 154.404 60.7552C156.851 58.3979 157.5 56.5026 157.5 55.1445C157.5 53.7863 156.851 51.891 154.404 49.5337C151.939 47.1594 148.045 44.7332 142.72 42.5633C132.101 38.2362 117 35.4167 100 35.4167C82.9998 35.4167 67.8993 38.2362 57.2805 42.5633C51.9554 44.7332 48.0605 47.1594 45.5961 49.5337ZM52.5634 30.9875C65.0176 25.9125 81.7921 22.9167 100 22.9167C118.208 22.9167 134.982 25.9125 147.437 30.9875C153.648 33.5186 159.089 36.6902 163.077 40.5318C167.082 44.3903 170 49.329 170 55.1445C170 60.9599 167.082 65.8986 163.077 69.7572C159.089 73.5988 153.648 76.7703 147.437 79.3014C134.982 84.3765 118.208 87.3723 100 87.3723C81.7921 87.3723 65.0176 84.3765 52.5634 79.3014C46.352 76.7703 40.9109 73.5988 36.9234 69.7572C32.9184 65.8986 30 60.9599 30 55.1445C30 49.329 32.9184 44.3903 36.9234 40.5318C40.9109 36.6902 46.352 33.5186 52.5634 30.9875Z" fill="black"/>
<path fill-rule="evenodd" clip-rule="evenodd" d="M38.6963 90.6259C41.3807 88.4559 45.316 88.8729 47.486 91.5573C50.2745 95.0068 56.4785 98.7647 66.0518 101.633C75.3968 104.434 87.1423 106.141 100 106.141C112.859 106.141 124.604 104.434 133.949 101.633C143.522 98.7647 149.726 95.0068 152.515 91.5573C154.685 88.8729 158.62 88.4559 161.305 90.6259C163.989 92.7959 164.406 96.7312 162.236 99.4156C157.088 105.784 147.98 110.478 137.537 113.607C126.866 116.805 113.893 118.641 100 118.641C86.1083 118.641 73.1345 116.805 62.4637 113.607C52.0211 110.478 42.9128 105.784 37.7649 99.4156C35.5949 96.7312 36.0119 92.7959 38.6963 90.6259Z" fill="black"/>
<path fill-rule="evenodd" clip-rule="evenodd" d="M63.1497 128.566C65.24 125.819 69.1614 125.287 71.9083 127.377C76.4097 130.803 86.7723 133.884 99.9985 133.884C113.225 133.884 123.587 130.803 128.089 127.377C130.836 125.287 134.757 125.819 136.847 128.566C138.937 131.313 138.405 135.234 135.658 137.325C127.985 143.164 114.366 146.384 99.9985 146.384C85.631 146.384 72.012 143.164 64.3386 137.325C61.5917 135.234 61.0595 131.313 63.1497 128.566Z" fill="black"/>
<path fill-rule="evenodd" clip-rule="evenodd" d="M88.0205 164.89C89.6228 161.821 93.397 160.62 96.4503 162.208C96.7798 162.379 97.7664 162.718 99.5482 162.846C101.243 162.968 103.325 162.874 105.596 162.478C107.867 162.081 109.861 161.465 111.42 160.775C113.058 160.051 113.878 159.397 114.133 159.124C116.493 156.591 120.445 156.444 122.958 158.795C125.471 161.146 125.595 165.105 123.234 167.637C119.779 171.343 113.669 173.758 107.668 174.805C101.667 175.852 95.1166 175.645 90.6478 173.321C87.5944 171.734 86.4182 167.959 88.0205 164.89Z" fill="black"/>
</svg>
